<mxfile host="65bd71144e">
    <diagram id="DaxmQc26CqXxTbCbciNR" name="Page-1">
        <mxGraphModel dx="1387" dy="858" grid="1" gridSize="10" guides="1" tooltips="1" connect="1" arrows="1" fold="1" page="1" pageScale="1" pageWidth="1654" pageHeight="1169" math="0" shadow="0">
            <root>
                <mxCell id="0"/>
                <mxCell id="1" parent="0"/>
                <mxCell id="2" value="" style="endArrow=none;dashed=1;html=1;" edge="1" parent="1">
                    <mxGeometry width="50" height="50" relative="1" as="geometry">
                        <mxPoint x="240" y="160" as="sourcePoint"/>
                        <mxPoint x="1280" y="1040" as="targetPoint"/>
                        <Array as="points">
                            <mxPoint x="1280" y="160"/>
                        </Array>
                    </mxGeometry>
                </mxCell>
                <mxCell id="3" value="" style="endArrow=none;dashed=1;html=1;" edge="1" parent="1">
                    <mxGeometry width="50" height="50" relative="1" as="geometry">
                        <mxPoint x="240" y="160" as="sourcePoint"/>
                        <mxPoint x="1280" y="1040" as="targetPoint"/>
                        <Array as="points">
                            <mxPoint x="240" y="1040"/>
                        </Array>
                    </mxGeometry>
                </mxCell>
                <mxCell id="74" style="edgeStyle=none;html=1;" edge="1" parent="1" source="4">
                    <mxGeometry relative="1" as="geometry">
                        <mxPoint x="80" y="470" as="targetPoint"/>
                        <Array as="points">
                            <mxPoint x="80" y="80"/>
                        </Array>
                    </mxGeometry>
                </mxCell>
                <mxCell id="75" value="minimium&amp;nbsp;&lt;br&gt;Bills" style="edgeLabel;html=1;align=center;verticalAlign=middle;resizable=0;points=[];" vertex="1" connectable="0" parent="74">
                    <mxGeometry x="0.1785" y="-1" relative="1" as="geometry">
                        <mxPoint as="offset"/>
                    </mxGeometry>
                </mxCell>
                <mxCell id="4" value="accounting" style="ellipse;whiteSpace=wrap;html=1;" vertex="1" parent="1">
                    <mxGeometry x="345" y="40" width="120" height="80" as="geometry"/>
                </mxCell>
                <mxCell id="17" style="edgeStyle=none;html=1;exitX=1;exitY=0.5;exitDx=0;exitDy=0;" edge="1" parent="1" source="6" target="13">
                    <mxGeometry relative="1" as="geometry"/>
                </mxCell>
                <mxCell id="19" value="Given information" style="edgeLabel;html=1;align=center;verticalAlign=middle;resizable=0;points=[];" vertex="1" connectable="0" parent="17">
                    <mxGeometry x="-0.1845" y="1" relative="1" as="geometry">
                        <mxPoint as="offset"/>
                    </mxGeometry>
                </mxCell>
                <mxCell id="6" value="patient" style="ellipse;whiteSpace=wrap;html=1;" vertex="1" parent="1">
                    <mxGeometry x="20" y="470" width="120" height="80" as="geometry"/>
                </mxCell>
                <mxCell id="49" style="edgeStyle=none;html=1;exitX=0;exitY=0.5;exitDx=0;exitDy=0;entryX=0.5;entryY=1;entryDx=0;entryDy=0;" edge="1" parent="1" source="7" target="6">
                    <mxGeometry relative="1" as="geometry">
                        <Array as="points">
                            <mxPoint x="80" y="1100"/>
                        </Array>
                    </mxGeometry>
                </mxCell>
                <mxCell id="50" value="EMR information" style="edgeLabel;html=1;align=center;verticalAlign=middle;resizable=0;points=[];" vertex="1" connectable="0" parent="49">
                    <mxGeometry x="0.3481" y="4" relative="1" as="geometry">
                        <mxPoint as="offset"/>
                    </mxGeometry>
                </mxCell>
                <mxCell id="7" value="D1&amp;nbsp; &amp;nbsp; &amp;nbsp;Patient EMR" style="html=1;dashed=0;whitespace=wrap;shape=mxgraph.dfd.dataStoreID;align=left;spacingLeft=3;points=[[0,0],[0.5,0],[1,0],[0,0.5],[1,0.5],[0,1],[0.5,1],[1,1]];" vertex="1" parent="1">
                    <mxGeometry x="310" y="1080" width="140" height="40" as="geometry"/>
                </mxCell>
                <mxCell id="24" style="edgeStyle=none;html=1;exitX=0;exitY=0;exitDx=120;exitDy=60;exitPerimeter=0;entryX=-0.004;entryY=0.556;entryDx=0;entryDy=0;entryPerimeter=0;" edge="1" parent="1" source="13" target="20">
                    <mxGeometry relative="1" as="geometry"/>
                </mxCell>
                <mxCell id="26" value="Patient Description" style="edgeLabel;html=1;align=center;verticalAlign=middle;resizable=0;points=[];" vertex="1" connectable="0" parent="24">
                    <mxGeometry x="-0.121" y="-1" relative="1" as="geometry">
                        <mxPoint as="offset"/>
                    </mxGeometry>
                </mxCell>
                <mxCell id="31" style="edgeStyle=none;html=1;exitX=0;exitY=0;exitDx=65;exitDy=110;exitPerimeter=0;entryX=0.495;entryY=-0.014;entryDx=0;entryDy=0;entryPerimeter=0;" edge="1" parent="1" source="13" target="27">
                    <mxGeometry relative="1" as="geometry"/>
                </mxCell>
                <mxCell id="32" value="medical records" style="edgeLabel;html=1;align=center;verticalAlign=middle;resizable=0;points=[];" vertex="1" connectable="0" parent="31">
                    <mxGeometry x="0.2102" y="-2" relative="1" as="geometry">
                        <mxPoint x="-3" y="-11" as="offset"/>
                    </mxGeometry>
                </mxCell>
                <mxCell id="13" value="information&lt;br&gt;recognition" style="html=1;dashed=0;whitespace=wrap;shape=mxgraph.dfd.externalEntity" vertex="1" parent="1">
                    <mxGeometry x="310" y="455" width="120" height="110" as="geometry"/>
                </mxCell>
                <mxCell id="14" value="1.0" style="autosize=1;part=1;resizable=0;strokeColor=inherit;fillColor=inherit;gradientColor=inherit;" vertex="1" parent="13">
                    <mxGeometry width="40" height="30" relative="1" as="geometry">
                        <mxPoint x="5" y="10" as="offset"/>
                    </mxGeometry>
                </mxCell>
                <mxCell id="38" style="edgeStyle=none;html=1;entryX=0.5;entryY=0;entryDx=0;entryDy=0;" edge="1" parent="1" source="20" target="36">
                    <mxGeometry relative="1" as="geometry"/>
                </mxCell>
                <mxCell id="51" value="Medical History" style="edgeLabel;html=1;align=center;verticalAlign=middle;resizable=0;points=[];" vertex="1" connectable="0" parent="38">
                    <mxGeometry x="-0.3686" y="2" relative="1" as="geometry">
                        <mxPoint as="offset"/>
                    </mxGeometry>
                </mxCell>
                <mxCell id="59" style="edgeStyle=none;html=1;exitX=0;exitY=0;exitDx=120.00000000000001;exitDy=62.50000000000001;exitPerimeter=0;entryX=-0.006;entryY=0.556;entryDx=0;entryDy=0;entryPerimeter=0;" edge="1" parent="1" source="20" target="57">
                    <mxGeometry relative="1" as="geometry"/>
                </mxCell>
                <mxCell id="60" value="patient's Identity" style="edgeLabel;html=1;align=center;verticalAlign=middle;resizable=0;points=[];" vertex="1" connectable="0" parent="59">
                    <mxGeometry x="0.3806" y="1" relative="1" as="geometry">
                        <mxPoint x="-37" as="offset"/>
                    </mxGeometry>
                </mxCell>
                <mxCell id="71" style="edgeStyle=none;html=1;exitX=0;exitY=0;exitDx=54.99999999999999;exitDy=0;exitPerimeter=0;entryX=0.497;entryY=1.016;entryDx=0;entryDy=0;entryPerimeter=0;" edge="1" parent="1" source="20" target="54">
                    <mxGeometry relative="1" as="geometry"/>
                </mxCell>
                <mxCell id="78" value="key words" style="edgeLabel;html=1;align=center;verticalAlign=middle;resizable=0;points=[];" vertex="1" connectable="0" parent="71">
                    <mxGeometry x="-0.2268" y="-1" relative="1" as="geometry">
                        <mxPoint x="-1" y="-10" as="offset"/>
                    </mxGeometry>
                </mxCell>
                <mxCell id="20" value="NLP Recognition" style="html=1;dashed=0;whitespace=wrap;shape=mxgraph.dfd.externalEntity" vertex="1" parent="1">
                    <mxGeometry x="650" y="450" width="120" height="115" as="geometry"/>
                </mxCell>
                <mxCell id="21" value="1.1" style="autosize=1;part=1;resizable=0;strokeColor=inherit;fillColor=inherit;gradientColor=inherit;" vertex="1" parent="20">
                    <mxGeometry width="40" height="30" relative="1" as="geometry">
                        <mxPoint x="5" y="10" as="offset"/>
                    </mxGeometry>
                </mxCell>
                <mxCell id="33" style="edgeStyle=none;html=1;entryX=0.546;entryY=0.027;entryDx=0;entryDy=0;exitX=0;exitY=0;exitDx=70;exitDy=120;exitPerimeter=0;entryPerimeter=0;" edge="1" parent="1" source="42" target="7">
                    <mxGeometry relative="1" as="geometry">
                        <mxPoint x="380" y="960" as="sourcePoint"/>
                    </mxGeometry>
                </mxCell>
                <mxCell id="35" value="Patient EMR update" style="edgeLabel;html=1;align=center;verticalAlign=middle;resizable=0;points=[];" vertex="1" connectable="0" parent="33">
                    <mxGeometry x="-0.1566" relative="1" as="geometry">
                        <mxPoint y="-13" as="offset"/>
                    </mxGeometry>
                </mxCell>
                <mxCell id="47" style="edgeStyle=none;html=1;exitX=0.487;exitY=1.025;exitDx=0;exitDy=0;exitPerimeter=0;entryX=0;entryY=0;entryDx=60;entryDy=0;entryPerimeter=0;" edge="1" parent="1" source="27" target="42">
                    <mxGeometry relative="1" as="geometry"/>
                </mxCell>
                <mxCell id="53" value="All Records" style="edgeLabel;html=1;align=center;verticalAlign=middle;resizable=0;points=[];" vertex="1" connectable="0" parent="47">
                    <mxGeometry x="0.5423" y="-1" relative="1" as="geometry">
                        <mxPoint x="1" y="-22" as="offset"/>
                    </mxGeometry>
                </mxCell>
                <mxCell id="27" value="medical records&lt;br&gt;Authenticator" style="html=1;dashed=0;whitespace=wrap;shape=mxgraph.dfd.externalEntity" vertex="1" parent="1">
                    <mxGeometry x="310" y="660" width="130" height="120" as="geometry"/>
                </mxCell>
                <mxCell id="28" value="1.2" style="autosize=1;part=1;resizable=0;strokeColor=inherit;fillColor=inherit;gradientColor=inherit;" vertex="1" parent="27">
                    <mxGeometry width="40" height="30" relative="1" as="geometry">
                        <mxPoint x="5" y="10" as="offset"/>
                    </mxGeometry>
                </mxCell>
                <mxCell id="40" style="edgeStyle=none;html=1;exitX=0;exitY=0.5;exitDx=0;exitDy=0;" edge="1" parent="1" source="36" target="27">
                    <mxGeometry relative="1" as="geometry"/>
                </mxCell>
                <mxCell id="41" value="Medical History&amp;nbsp;&lt;br&gt;Validation" style="edgeLabel;html=1;align=center;verticalAlign=middle;resizable=0;points=[];" vertex="1" connectable="0" parent="40">
                    <mxGeometry x="0.1565" y="2" relative="1" as="geometry">
                        <mxPoint x="14" y="-2" as="offset"/>
                    </mxGeometry>
                </mxCell>
                <mxCell id="36" value="D0.1&amp;nbsp; Medical History cache&amp;nbsp;&amp;nbsp;" style="html=1;dashed=0;whitespace=wrap;shape=mxgraph.dfd.dataStoreID;align=left;spacingLeft=3;points=[[0,0],[0.5,0],[1,0],[0,0.5],[1,0.5],[0,1],[0.5,1],[1,1]];" vertex="1" parent="1">
                    <mxGeometry x="620" y="705" width="180" height="30" as="geometry"/>
                </mxCell>
                <mxCell id="42" value="privacy &lt;br&gt;Encrypter" style="html=1;dashed=0;whitespace=wrap;shape=mxgraph.dfd.externalEntity" vertex="1" parent="1">
                    <mxGeometry x="315" y="860" width="130" height="120" as="geometry"/>
                </mxCell>
                <mxCell id="43" value="1.3" style="autosize=1;part=1;resizable=0;strokeColor=inherit;fillColor=inherit;gradientColor=inherit;" vertex="1" parent="42">
                    <mxGeometry width="40" height="30" relative="1" as="geometry">
                        <mxPoint x="5" y="10" as="offset"/>
                    </mxGeometry>
                </mxCell>
                <mxCell id="76" style="edgeStyle=none;html=1;exitX=-0.015;exitY=0.613;exitDx=0;exitDy=0;exitPerimeter=0;entryX=1;entryY=0.5;entryDx=0;entryDy=0;" edge="1" parent="1" source="54" target="56">
                    <mxGeometry relative="1" as="geometry"/>
                </mxCell>
                <mxCell id="77" value="Descripted&lt;br&gt;predicted&lt;br&gt;service" style="edgeLabel;html=1;align=center;verticalAlign=middle;resizable=0;points=[];" vertex="1" connectable="0" parent="76">
                    <mxGeometry x="0.1745" y="-2" relative="1" as="geometry">
                        <mxPoint y="3" as="offset"/>
                    </mxGeometry>
                </mxCell>
                <mxCell id="54" value="Service perdiction" style="html=1;dashed=0;whitespace=wrap;shape=mxgraph.dfd.externalEntity" vertex="1" parent="1">
                    <mxGeometry x="640" y="200" width="130" height="120" as="geometry"/>
                </mxCell>
                <mxCell id="55" value="1.4" style="autosize=1;part=1;resizable=0;strokeColor=inherit;fillColor=inherit;gradientColor=inherit;" vertex="1" parent="54">
                    <mxGeometry width="40" height="30" relative="1" as="geometry">
                        <mxPoint x="5" y="10" as="offset"/>
                    </mxGeometry>
                </mxCell>
                <mxCell id="72" style="edgeStyle=none;html=1;entryX=0.5;entryY=1;entryDx=0;entryDy=0;exitX=0.5;exitY=0;exitDx=0;exitDy=0;" edge="1" parent="1" source="56" target="4">
                    <mxGeometry relative="1" as="geometry">
                        <mxPoint x="400" y="260" as="sourcePoint"/>
                        <mxPoint x="400" y="110" as="targetPoint"/>
                    </mxGeometry>
                </mxCell>
                <mxCell id="73" value="Estiamted Cost" style="edgeLabel;html=1;align=center;verticalAlign=middle;resizable=0;points=[];" vertex="1" connectable="0" parent="72">
                    <mxGeometry x="-0.2434" y="2" relative="1" as="geometry">
                        <mxPoint as="offset"/>
                    </mxGeometry>
                </mxCell>
                <mxCell id="56" value="D0.2&amp;nbsp; Predicted service cache" style="html=1;dashed=0;whitespace=wrap;shape=mxgraph.dfd.dataStoreID;align=left;spacingLeft=3;points=[[0,0],[0.5,0],[1,0],[0,0.5],[1,0.5],[0,1],[0.5,1],[1,1]];" vertex="1" parent="1">
                    <mxGeometry x="320" y="260" width="170" height="30" as="geometry"/>
                </mxCell>
                <mxCell id="61" style="edgeStyle=none;html=1;exitX=0;exitY=0;exitDx=65;exitDy=105;exitPerimeter=0;entryX=0;entryY=0;entryDx=130;entryDy=65;entryPerimeter=0;" edge="1" parent="1" source="57" target="42">
                    <mxGeometry relative="1" as="geometry">
                        <Array as="points">
                            <mxPoint x="1040" y="920"/>
                        </Array>
                    </mxGeometry>
                </mxCell>
                <mxCell id="62" value="patients Identity" style="edgeLabel;html=1;align=center;verticalAlign=middle;resizable=0;points=[];" vertex="1" connectable="0" parent="61">
                    <mxGeometry x="0.5062" y="2" relative="1" as="geometry">
                        <mxPoint x="1" as="offset"/>
                    </mxGeometry>
                </mxCell>
                <mxCell id="57" value="Identity validator" style="html=1;dashed=0;whitespace=wrap;shape=mxgraph.dfd.externalEntity" vertex="1" parent="1">
                    <mxGeometry x="970" y="455" width="120" height="105" as="geometry"/>
                </mxCell>
                <mxCell id="58" value="1.4" style="autosize=1;part=1;resizable=0;strokeColor=inherit;fillColor=inherit;gradientColor=inherit;" vertex="1" parent="57">
                    <mxGeometry width="40" height="30" relative="1" as="geometry">
                        <mxPoint x="5" y="10" as="offset"/>
                    </mxGeometry>
                </mxCell>
                <mxCell id="69" style="edgeStyle=none;html=1;exitX=0;exitY=0.5;exitDx=0;exitDy=0;entryX=1;entryY=0.621;entryDx=0;entryDy=0;entryPerimeter=0;" edge="1" parent="1" source="63" target="54">
                    <mxGeometry relative="1" as="geometry"/>
                </mxCell>
                <mxCell id="70" value="list of services" style="edgeLabel;html=1;align=center;verticalAlign=middle;resizable=0;points=[];" vertex="1" connectable="0" parent="69">
                    <mxGeometry x="-0.1578" y="-3" relative="1" as="geometry">
                        <mxPoint as="offset"/>
                    </mxGeometry>
                </mxCell>
                <mxCell id="63" value="D0.3&amp;nbsp; Available Services" style="html=1;dashed=0;whitespace=wrap;shape=mxgraph.dfd.dataStoreID;align=left;spacingLeft=3;points=[[0,0],[0.5,0],[1,0],[0,0.5],[1,0.5],[0,1],[0.5,1],[1,1]];" vertex="1" parent="1">
                    <mxGeometry x="960" y="260" width="140" height="30" as="geometry"/>
                </mxCell>
            </root>
        </mxGraphModel>
    </diagram>
</mxfile>